#!OML:ASF F:\VICON\USERDATA\INSTALL\rory3\rory3.ASF
:FULLY-SPECIFIED
:DEGREES
993
root -1.46728 17.5167 -0.627984 5.08634 -31.2228 -1.3129
lowerback 4.82033 -1.41361 -0.621872
upperback 1.35403 -1.87575 4.4771
thorax -1.13684 -0.95593 5.08532
lowerneck -15.3005 -6.70849 -12.2575
upperneck 16.5217 -9.63655 15.7657
head 9.11099 -3.86691 6.22417
rclavicle -9.74045e-015 2.22639e-014
rhumerus 25.5286 -0.128988 -44.2879
rradius 59.8025
rwrist 8.76697
rhand -29.439 5.19065
rfingers 7.12502
rthumb -2.77569 -24.771
lclavicle -9.74045e-015 2.22639e-014
lhumerus 10.3413 -0.0149264 46.8633
lradius 52.0413
lwrist 2.69721
lhand -11.6618 20.0958
lfingers 7.12502
lthumb 14.3829 49.5775
rfemur -2.84986 8.27928 18.8883
rtibia 27.3388
rfoot -21.8929 5.78282
rtoes 3.02748
lfemur -26.2887 -5.72049 -9.80525
ltibia 16.0812
lfoot 0.521877 14.723
ltoes -18.5713
994
root -1.47066 17.5222 -0.541541 5.07012 -31.3528 -1.00473
lowerback 4.86979 -1.32453 -1.07203
upperback 1.27986 -1.77513 4.35056
thorax -1.2404 -0.901273 5.20682
lowerneck -15.2454 -6.76969 -12.1742
upperneck 16.2503 -9.73696 15.8763
head 9.0279 -3.90587 6.22765
rclavicle 7.89175e-014 1.82882e-014
rhumerus 23.4554 1.46796 -45.7825
rradius 58.7908
rwrist 9.73855
rhand -28.4449 5.50365
rfingers 7.12502
rthumb -1.81563 -24.4684
lclavicle 7.89175e-014 1.82882e-014
lhumerus 8.80351 -1.51185 48.5398
lradius 52.4925
lwrist 0.850799
lhand -10.8673 19.8933
lfingers 7.12502
lthumb 15.1483 49.3188
rfemur -2.66109 8.07671 18.4001
rtibia 27.1716
rfoot -21.7443 6.04191
rtoes 2.84854
lfemur -26.442 -5.19054 -10.3302
ltibia 16.2796
lfoot 1.78262 13.8615
ltoes -19.3891
995
root -1.47453 17.5248 -0.454136 5.10584 -31.4025 -0.842523
lowerback 4.93875 -1.28078 -1.36832
upperback 1.26403 -1.73028 4.26398
thorax -1.2934 -0.876563 5.28502
lowerneck -15.4092 -6.84146 -12.0674
upperneck 16.0237 -9.80808 15.845
head 8.98608 -3.93134 6.17794
rclavicle 5.76476e-014 5.40694e-014
rhumerus 21.4619 2.82962 -47.5384
rradius 57.7378
rwrist 10.5573
rhand -27.5263 5.86475
rfingers 7.12502
rthumb -0.928384 -24.113
lclavicle 5.76476e-014 5.40694e-014
lhumerus 7.21445 -2.88701 50.3146
lradius 52.8209
lwrist -0.783125
lhand -10.1366 19.7845
lfingers 7.12502
lthumb 15.8521 49.1555
rfemur -2.5289 7.81963 18.0737
rtibia 27.1674
rfoot -21.6585 6.28644
rtoes 3.09754
lfemur -26.6133 -4.27239 -10.8852
ltibia 16.5384
lfoot 2.84982 12.1782
ltoes -19.2011
996
root -1.47608 17.5171 -0.363736 5.11127 -31.4396 -0.779424
lowerback 4.96835 -1.24274 -1.44205
upperback 1.3609 -1.68682 4.13087
thorax -1.21643 -0.857027 5.18382
lowerneck -15.5422 -6.92218 -11.8789
upperneck 15.6098 -9.88334 15.7895
head 8.87048 -3.96092 6.10037
rclavicle 2.64384e-014 3.97569e-015
rhumerus 19.5229 3.89346 -49.5493
rradius 56.5739
rwrist 11.1806
rhand -26.8055 6.08223
rfingers 7.12502
rthumb -0.232222 -23.8974
lclavicle 2.64384e-014 3.97569e-015
lhumerus 5.75311 -4.20785 52.1482
lradius 52.9045
lwrist -1.81345
lhand -10.2277 19.5183
lfingers 7.12502
lthumb 15.7643 48.8963
rfemur -2.36644 7.59279 17.8647
rtibia 27.2752
rfoot -21.6514 6.45566
rtoes 3.22014
lfemur -26.7824 -3.50984 -11.3026
ltibia 16.9858
lfoot 3.57175 10.61
ltoes -19.1581
997
root -1.47899 17.5059 -0.270762 5.15497 -31.4627 -0.651469
lowerback 4.94085 -1.20414 -1.5803
upperback 1.39004 -1.64375 3.99804
thorax -1.17538 -0.835753 5.11946
lowerneck -15.6074 -7.00717 -11.8294
upperneck 15.2669 -9.96939 15.8316
head 8.78142 -3.9979 6.08394
rclavicle 1.41137e-014 3.10104e-014
rhumerus 17.406 4.93617 -51.5233
rradius 55.4813
rwrist 11.5284
rhand -26.2283 5.95925
rfingers 7.12502
rthumb 0.325234 -24.0202
lclavicle 1.41137e-014 3.10104e-014
lhumerus 4.23162 -5.40272 54.1155
lradius 52.7809
lwrist -2.43599
lhand -11.1395 19.1335
lfingers 7.12502
lthumb 14.8861 48.5787
rfemur -2.25253 7.43066 17.6181
rtibia 27.4426
rfoot -21.7181 6.40166
rtoes 2.84799
lfemur -27.1334 -2.60974 -11.7897
ltibia 17.6955
lfoot 4.05813 9.14223
ltoes -18.6426
998
root -1.48461 17.4945 -0.1751 5.25157 -31.5711 -0.470683
lowerback 4.85682 -1.0697 -1.76185
upperback 1.42577 -1.47503 3.83662
thorax -1.10821 -0.751947 5.04151
lowerneck -15.8954 -7.19772 -11.8948
upperneck 15.0026 -10.1887 15.9863
head 8.794 -4.08259 6.10575
rclavicle 6.06293e-014 -2.22639e-014
rhumerus 15.1168 5.59479 -53.4523
rradius 54.464
rwrist 11.8764
rhand -25.5155 5.88045
rfingers 7.12502
rthumb 1.01371 -24.0969
lclavicle 6.06293e-014 -2.22639e-014
lhumerus 2.93048 -6.22066 56.2832
lradius 52.4394
lwrist -3.7905
lhand -11.2665 19.0526
lfingers 7.12502
lthumb 14.7638 48.5068
rfemur -2.25365 7.315 17.3008
rtibia 27.6917
rfoot -21.7894 6.35311
rtoes 2.17222
lfemur -27.5934 -1.45543 -12.413
ltibia 18.5978
lfoot 4.42207 7.36237
ltoes -17.8945
999
root -1.48717 17.4828 -0.0746966 5.43791 -31.7159 -0.509754
lowerback 4.78691 -0.963411 -1.73643
upperback 1.44422 -1.33292 3.76703
thorax -1.06676 -0.681396 4.94441
lowerneck -16.0592 -7.32393 -11.9312
upperneck 14.7003 -10.2992 15.9968
head 8.74307 -4.13355 6.08833
rclavicle -2.10712e-014 1.66979e-014
rhumerus 12.963 6.27876 -55.3526
rradius 53.2917
rwrist 12.3058
rhand -24.4913 5.63143
rfingers 7.12502
rthumb 2.00291 -24.3389
lclavicle -2.10712e-014 1.66979e-014
lhumerus 1.35321 -6.4411 58.6239
lradius 52.1179
lwrist -5.75265
lhand -10.189 18.882
lfingers 7.12502
lthumb 15.8016 48.2571
rfemur -2.25262 7.22623 17.1748
rtibia 27.9714
rfoot -21.8468 6.29592
rtoes 1.89885
lfemur -28.0196 -0.631186 -12.7464
ltibia 19.607
lfoot 4.31336 5.80242
ltoes -15.5279
1000
root -1.48862 17.4722 0.0268017 5.59965 -31.7305 -0.563946
lowerback 4.72184 -0.937931 -1.69097
upperback 1.43677 -1.29687 3.72271
thorax -1.04379 -0.663326 4.86868
lowerneck -16.0132 -7.35315 -11.7741
upperneck 14.3127 -10.2858 15.7988
head 8.58186 -4.14505 5.98435
rclavicle 2.50469e-014 -6.36111e-015
rhumerus 10.8736 7.22154 -57.1713
rradius 52.0368
rwrist 12.1296
rhand -23.4464 4.9651
rfingers 7.12502
rthumb 3.01198 -24.9934
lclavicle 2.50469e-014 -6.36111e-015
lhumerus -0.495179 -6.26105 61.0187
lradius 51.8097
lwrist -7.4309
lhand -8.43052 18.1767
lfingers 7.12502
lthumb 17.4946 47.4095
rfemur -2.19311 7.06836 17.0963
rtibia 28.2271
rfoot -21.9356 6.11881
rtoes 1.03842
lfemur -28.4289 -0.0531205 -13.005
ltibia 20.6572
lfoot 3.80068 4.54783
ltoes -13.0659
1001
root -1.49054 17.4668 0.128341 5.71225 -31.7288 -0.516079
lowerback 4.64493 -0.82134 -1.63553
upperback 1.49727 -1.14146 3.50776
thorax -0.959376 -0.586676 4.60167
lowerneck -16.2759 -7.49813 -11.4166
upperneck 14.0416 -10.4964 15.7148
head 8.54689 -4.22522 5.85068
rclavicle -8.64713e-014 -2.46493e-014
rhumerus 8.62656 7.69789 -59.1053
rradius 50.8546
rwrist 11.8527
rhand -22.4477 4.25996
rfingers 7.12502
rthumb 3.97643 -25.6827
lclavicle -8.64713e-014 -2.46493e-014
lhumerus -1.98252 -6.23454 63.2364
lradius 51.3894
lwrist -8.35386
lhand -7.16481 17.739
lfingers 7.12502
lthumb 18.7123 46.859
rfemur -2.15497 6.78745 16.8902
rtibia 28.5085
rfoot -21.8387 6.16898
rtoes 0.506799
lfemur -28.8463 0.465765 -13.3364
ltibia 21.7165
lfoot 3.38989 3.89183
ltoes -12.9253
1002
root -1.48924 17.4685 0.233673 5.81733 -31.831 -0.485366
lowerback 4.60668 -0.716415 -1.58579
upperback 1.49161 -0.999939 3.34709
thorax -0.960817 -0.514724 4.39773
lowerneck -16.393 -7.61768 -11.3292
upperneck 13.8714 -10.644 15.6827
head 8.52677 -4.29089 5.79603
rclavicle -1.15295e-014 1.43125e-014
rhumerus 6.37163 7.90803 -61.1509
rradius 49.5926
rwrist 12.5881
rhand -21.3623 4.28677
rfingers 7.12502
rthumb 5.02455 -25.6337
lclavicle -1.15295e-014 1.43125e-014
lhumerus -3.59739 -6.09108 65.4265
lradius 50.8095
lwrist -8.8978
lhand -6.79448 17.6827
lfingers 7.12502
lthumb 19.0685 46.7679
rfemur -2.15948 6.4169 16.6092
rtibia 28.8677
rfoot -21.6519 6.50063
rtoes 0.550133
lfemur -29.1845 1.11049 -13.6959
ltibia 22.6802
lfoot 3.25355 3.55028
ltoes -13.2377
